<?xml version="1.0" standalone="no"?>
<!DOCTYPE svg PUBLIC "-//W3C//DTD SVG 20010904//EN"
 "http://www.w3.org/TR/2001/REC-SVG-20010904/DTD/svg10.dtd">
<svg version="1.0" xmlns="http://www.w3.org/2000/svg"
 width="50.000000pt" height="50.000000pt" viewBox="0 0 50.000000 50.000000"
 preserveAspectRatio="xMidYMid meet">
<metadata>
Created by potrace 1.13, written by Peter Selinger 2001-2015
</metadata>
<g transform="translate(0.000000,50.000000) scale(0.100000,-0.100000)"
fill="#000000" stroke="none">
<path d="M205 478 c-74 -26 -134 -59 -140 -79 -4 -12 -16 -30 -27 -41 -10 -10
-18 -29 -17 -41 2 -12 -1 -32 -5 -44 -8 -24 17 -112 37 -128 7 -5 17 -21 23
-35 7 -14 31 -35 55 -46 24 -12 61 -30 82 -40 41 -21 26 -24 156 40 24 11 48
32 55 46 6 14 16 30 23 35 20 16 45 104 37 128 -4 12 -7 29 -6 38 2 9 -8 38
-22 65 -20 40 -34 54 -75 73 -28 13 -56 21 -64 18 -7 -2 -21 1 -32 9 -21 16
-37 16 -80 2z m77 -27 c9 -15 15 -17 28 -8 17 10 26 8 63 -13 9 -5 25 -14 35
-19 9 -4 19 -18 20 -31 2 -13 11 -30 19 -38 8 -8 12 -24 9 -35 -2 -10 1 -28 7
-38 9 -15 9 -24 -1 -39 -6 -11 -12 -29 -12 -39 0 -11 -8 -26 -19 -33 -10 -7
-20 -22 -22 -33 -2 -11 -14 -24 -26 -30 -11 -6 -28 -17 -37 -24 -9 -7 -24 -11
-34 -9 -12 3 -23 -2 -31 -13 -15 -25 -47 -24 -61 0 -6 13 -17 17 -30 14 -11
-3 -27 1 -36 8 -9 7 -26 18 -37 24 -12 6 -24 19 -26 30 -2 11 -12 26 -22 33
-11 7 -19 22 -19 33 0 10 -6 28 -12 39 -10 16 -10 24 0 40 7 11 10 31 6 44 -4
18 0 28 15 38 12 7 21 20 21 28 0 21 20 40 41 40 9 0 22 7 30 16 7 9 22 14 36
11 13 -2 28 2 34 9 16 20 47 17 61 -5z"/>
<path d="M172 324 c-7 -8 -26 -14 -42 -14 -16 0 -32 -5 -35 -10 -9 -15 13 -40
35 -40 11 0 21 -14 30 -41 19 -57 66 -119 90 -119 24 0 66 54 85 112 13 36 22
46 48 54 44 12 42 38 -3 42 -19 2 -39 7 -45 12 -5 4 -39 7 -75 5 -36 -2 -67 1
-70 5 -3 4 -11 2 -18 -6z"/>
</g>
</svg>
